<svg version="1" xmlns="http://www.w3.org/2000/svg" width="1365.333" height="1365.333" viewBox="0 0 1024.000000 1024.000000"><path d="M0 512v512h1024V0H0v512zm527.4-269.9c93.4 42.5 155.4 78.7 210.6 123 15.7 12.6 39.5 33.5 47.5 41.8l5 5.2-9.1-5.9c-52.4-34.4-113.6-63.9-190.7-91.8-30.2-10.9-81.8-28.4-83.8-28.4-2.7 0-51 14.7-73.8 22.5-42.2 14.4-76.3 28.6-111.6 46.5-27.9 14.2-46.8 25.1-72.5 42.1L229.5 410l17-16.6c60-58.6 126.8-103.3 209.5-139.9 21.7-9.6 48-20.4 49.9-20.5.8 0 10.5 4.1 21.5 9.1zm3.7 78.8c74.6 25.2 119.7 43.3 167.9 67.7 59.9 30.3 110.8 65.6 160.2 111.2l13.7 12.7-2.7 2.8c-3.9 4.2-26.3 24.2-36.2 32.3-15.1 12.5-34.1 26.5-51.5 38-76.8 50.4-154 76.5-284.1 95.9l-11.2 1.7-31.3-8.5c-74.8-20.4-109.6-32.5-151.4-52.7-40.7-19.6-76.5-43.2-115.5-75.8-8.5-7.1-20.4-17.7-26.5-23.5l-11-10.5 9.5-9.7c66.2-67.2 148.4-119.7 246.5-157.4 29.3-11.2 92.3-31.8 98.1-32 1.1-.1 12.6 3.5 25.5 7.8zm-410.6 199c-.6.5-4.4-4.1-4.4-5.4 0-.6 1.1.3 2.4 2 1.3 1.6 2.2 3.1 2 3.4zm2.6 2.8c1.3 1.6 1.2 1.7-.3.4-1-.7-1.8-1.5-1.8-1.7 0-.8.8-.3 2.1 1.3zm4 5.6c1.2 2.2 1.2 2.2-1 .3-1.1-1.1-2.1-2.3-2.1-2.8 0-1.4 1.9.1 3.1 2.5zm6.4 8.3c.9 1.5 1.2 2.3.6 2-1.1-.7-3.5-4.6-2.8-4.6.3 0 1.2 1.2 2.2 2.6zm117.2 85.7c55.1 33.3 106.1 52.7 215.3 81.8l19.5 5.2 9.5-1.3c14-1.8 59.4-9.4 77.1-13 63-12.7 114.7-29.3 161.5-51.9 15.3-7.4 39.4-20.6 49.2-26.8 2.6-1.7 2.7-1.7 1.2.1-2.8 3.6-24.4 21.8-38 32-64.5 48.7-134.8 77.9-239.3 99.5l-18.9 3.9-26.7-9.8c-87.7-32.1-130.4-53.4-177.7-88.7-16.2-12.1-51-42-44.2-37.9 1.5.9 6.7 4 11.5 6.9z"/><path d="M482.5 382.9c-1.1.5-6.3 1.7-11.5 2.6-31.4 5.9-58.7 22.5-70.5 42.9-4.6 8-5.5 13.6-5.5 33.7 0 19.4 1.7 35.2 7.6 68.9 1.8 10.4 2.7 20.4 3.3 35.7.8 23.8.9 23.9 8.9 29.9 5.7 4.2 47.8 25.2 65.2 32.4 6.8 2.9 16.9 6.8 22.5 8.7 5.5 2 10.4 3.9 11 4.4 1.2 1.2 8.2 1.2 8.7 0 .4-1.2 20.9-11.4 33.8-16.9 46-19.7 48.4-20.8 55.2-27 7.8-7 7.9-7.9 10.3-65.7.7-15.2 2.6-35.2 5-51 3.2-21.1 3.7-27.3 3.2-37.5-.5-12.1-2.7-19-8.3-26-13.2-16.6-34.2-25-83.9-33.7-10.9-1.8-51.4-2.9-55-1.4zm-7.5 53.2c0 .6-.4.7-1 .4-.5-.3-1-1.1-1-1.6 0-.6.5-.7 1-.4.6.3 1 1.1 1 1.6zm-16 4.8c0 .6-.4 1.3-1 1.6-.5.3-1-.1-1-.9 0-.9.5-1.6 1-1.6.6 0 1 .4 1 .9zm13 1.1c0 .5-.4 1-1 1-.5 0-1-.5-1-1 0-.6.5-1 1-1 .6 0 1 .4 1 1zm15.5 6c.3.5.1 1-.4 1-.6 0-1.1-.5-1.1-1 0-.6.2-1 .4-1 .3 0 .8.4 1.1 1zm-5.5 5c0 .5-.6 1-1.4 1-.8 0-1.8-.5-2.1-1-.3-.6.3-1 1.4-1 1.2 0 2.1.4 2.1 1zm7.5 0c.3.5.1 1-.4 1-.6 0-1.1-.5-1.1-1 0-.6.2-1 .4-1 .3 0 .8.4 1.1 1zm-18.1 3.3c1.5 2.4-.3 3.5-2 1.3-.8-1.1-1.4-2.4-1.4-2.9 0-1.3 2.2-.3 3.4 1.6zM486 458c0 .5-.5 1-1.1 1-.5 0-.7-.5-.4-1 .3-.6.8-1 1.1-1 .2 0 .4.4.4 1z"/></svg>